<svg xmlns="http://www.w3.org/2000/svg" xmlns:xlink="http://www.w3.org/1999/xlink" viewBox="0,0,256,256" width="48px" height="48px" fill-rule="nonzero"><g fill="none" fill-rule="nonzero" stroke="none" stroke-width="1" stroke-linecap="butt" stroke-linejoin="miter" stroke-miterlimit="10" stroke-dasharray="" stroke-dashoffset="0" font-family="none" font-weight="none" font-size="none" text-anchor="none" style="mix-blend-mode: normal"><g transform="scale(5.33333,5.33333)"><path d="M35.547,42.431l-3.182,-3.182l-2.121,2.121l3.182,3.182c0.586,0.586 1.536,0.586 2.121,0c0.585,-0.586 0.586,-1.535 0,-2.121zM38.547,24.431l-3.182,-3.182l-2.121,2.121l3.182,3.182c0.586,0.586 1.536,0.586 2.121,0c0.585,-0.586 0.586,-1.535 0,-2.121zM12.683,42.431l3.182,-3.182l2.121,2.121l-3.182,3.182c-0.586,0.586 -1.536,0.586 -2.121,0c-0.585,-0.586 -0.586,-1.535 0,-2.121zM9.433,24.431l3.182,-3.182l2.121,2.121l-3.182,3.182c-0.586,0.586 -1.536,0.586 -2.121,0c-0.585,-0.586 -0.586,-1.535 0,-2.121z" fill="#ba80ff"></path><path d="M38,8c0,-1.933 -1.149,-3 -3.231,-3c-2.082,0 -3.769,2.567 -3.769,4.5c0,1 1.923,1.5 3,1.5c2.082,0 4,-1.067 4,-3zM10,8c0,-1.933 1.149,-3 3.231,-3c2.082,0 3.769,2.567 3.769,4.5c0,1 -1.923,1.5 -3,1.5c-2.082,0 -4,-1.067 -4,-3z" fill="#5540af"></path><path d="M35,7c-0.55228,0 -1,0.44772 -1,1c0,0.55228 0.44772,1 1,1c0.55228,0 1,-0.44772 1,-1c0,-0.55228 -0.44772,-1 -1,-1zM13,7c-0.55228,0 -1,0.44772 -1,1c0,0.55228 0.44772,1 1,1c0.55228,0 1,-0.44772 1,-1c0,-0.55228 -0.44772,-1 -1,-1z" fill="#424242"></path><path d="M37,34c0,4.774 -3.219,10 -13.31,10c-8.122,0 -12.69,-5.226 -12.69,-10c0,-5 1,-5.806 1,-10c0,-4.688 0,-7 0,-10c0,-4.774 3.076,-11 11.69,-11c8.614,0 12.31,3.991 12.31,10c0,3 -0.237,5.453 0,10c0.186,3.562 1,8 1,11z" fill="#5540af"></path><g fill="#f5f5f5"><path d="M29,6c-2.20914,0 -4,1.79086 -4,4c0,2.20914 1.79086,4 4,4c2.20914,0 4,-1.79086 4,-4c0,-2.20914 -1.79086,-4 -4,-4zM19,6c-2.20914,0 -4,1.79086 -4,4c0,2.20914 1.79086,4 4,4c2.20914,0 4,-1.79086 4,-4c0,-2.20914 -1.79086,-4 -4,-4z"></path></g><g fill="#eeeeee"><path d="M24,20c0,0.552 0.448,1 1,1c0.552,0 1,-0.448 1,-1v-3h-2zM22,20c0,0.552 0.448,1 1,1c0.552,0 1,-0.448 1,-1v-3h-2z"></path></g><path d="M26.5,18c-0.412,0 -0.653,-0.085 -1.011,-0.205c-0.975,-0.328 -2.021,-0.326 -2.996,0.002c-0.355,0.119 -0.583,0.203 -0.993,0.203c-1.334,0 -1.5,-1 -1.5,-1.5c0,-1.5 1.5,-2.5 3,-2.5c0.835,0 1.165,0 2,0c1.5,0 3,1 3,2.5c0,0.5 -0.166,1.5 -1.5,1.5z" fill="#ba80ff"></path><g fill="#424242"><path d="M27,9c-0.55228,0 -1,0.44772 -1,1c0,0.55228 0.44772,1 1,1c0.55228,0 1,-0.44772 1,-1c0,-0.55228 -0.44772,-1 -1,-1zM17,9c-0.55228,0 -1,0.44772 -1,1c0,0.55228 0.44772,1 1,1c0.55228,0 1,-0.44772 1,-1c0,-0.55228 -0.44772,-1 -1,-1zM24,13c-1.10457,0 -2,0.44772 -2,1c0,0.55228 0.89543,1 2,1c1.10457,0 2,-0.44772 2,-1c0,-0.55228 -0.89543,-1 -2,-1z"></path></g></g></g></svg>