<svg xmlns="http://www.w3.org/2000/svg" xmlns:xlink="http://www.w3.org/1999/xlink" viewBox="0,0,256,256" width="48px" height="48px" fill-rule="nonzero"><g fill="none" fill-rule="nonzero" stroke="none" stroke-width="1" stroke-linecap="butt" stroke-linejoin="miter" stroke-miterlimit="10" stroke-dasharray="" stroke-dashoffset="0" font-family="none" font-weight="none" font-size="none" text-anchor="none" style="mix-blend-mode: normal"><g transform="translate(0,-10.66667) scale(5.33333,5.33333)"><path d="M20.1,18.2l0.1,2.3l-1.6,3l-2.5,4.9l-0.5,4.1l1.8,5.8l4.1,2.3h6.2l5.8,-4.4l2.6,-6.9l-6,-7.3l-1.7,-4.1z" fill="#eceff1"></path><path d="M34.3,23.9c-1.6,-2.3 -2.9,-3.7 -3.6,-6.6c-0.7,-2.9 0.2,-2.1 -0.4,-4.6c-0.3,-1.3 -0.8,-2.2 -1.3,-2.9c-0.6,-0.7 -1.3,-1.1 -1.7,-1.2c-0.9,-0.5 -3,-1.3 -5.6,0.1c-2.7,1.4 -2.4,4.4 -1.9,10.5c0,0.4 -0.1,0.9 -0.3,1.3c-0.4,0.9 -1.1,1.7 -1.7,2.4c-0.7,1 -1.4,2 -1.9,3.1c-1.2,2.3 -2.3,5.2 -2,6.3c0.5,-0.1 6.8,9.5 6.8,9.7c0.4,-0.1 2.1,-0.1 3.6,-0.1c2.1,-0.1 3.3,-0.2 5,0.2c0,-0.3 -0.1,-0.6 -0.1,-0.9c0,-0.6 0.1,-1.1 0.2,-1.8c0.1,-0.5 0.2,-1 0.3,-1.6c-1,0.9 -2.8,1.9 -4.5,2.2c-1.5,0.3 -4,-0.2 -5.2,-1.7c0.1,0 0.3,0 0.4,-0.1c0.3,-0.1 0.6,-0.2 0.7,-0.4c0.3,-0.5 0.1,-1 -0.1,-1.3c-0.2,-0.3 -1.7,-1.4 -2.4,-2c-0.7,-0.6 -1.1,-0.9 -1.5,-1.3c0,0 -0.6,-0.6 -0.8,-0.8c-0.2,-0.2 -0.3,-0.4 -0.4,-0.5c-0.2,-0.5 -0.3,-1.1 -0.2,-1.9c0.1,-1.1 0.5,-2 1,-3c0.2,-0.4 0.7,-1.2 0.7,-1.2c0,0 -1.7,4.2 -0.8,5.5c0,0 0.1,-1.3 0.5,-2.6c0.3,-0.9 0.8,-2.2 1.4,-2.9c0.6,-0.7 2.1,-3.3 2.2,-4.9c0,-0.7 0.1,-1.4 0.1,-1.9c-0.4,-0.4 6.6,-1.4 7,-0.3c0.1,0.4 1.5,4 2.3,5.9c0.4,0.9 0.9,1.7 1.2,2.7c0.3,1.1 0.5,2.6 0.5,4.1c0,0.3 0,0.8 -0.1,1.3c0.2,0 4.1,-4.2 -0.5,-7.7c0,0 2.8,1.3 2.9,3.9c0.1,2.1 -0.8,3.8 -1,4.1c0.1,0 2.1,0.9 2.2,0.9c0.4,0 1.2,-0.3 1.2,-0.3c0.1,-0.3 0.4,-1.1 0.4,-1.4c0.7,-2.3 -1,-6 -2.6,-8.3z" fill="#5540af"></path><path d="M21.6,13.3c-0.71797,0 -1.3,0.89543 -1.3,2c0,1.10457 0.58203,2 1.3,2c0.71797,0 1.3,-0.89543 1.3,-2c0,-1.10457 -0.58203,-2 -1.3,-2zM26.1,12.9c-0.93888,0 -1.7,1.02975 -1.7,2.3c0,1.27025 0.76112,2.3 1.7,2.3c0.93888,0 1.7,-1.02975 1.7,-2.3c0,-1.27025 -0.76112,-2.3 -1.7,-2.3z" fill="#eceff1"></path><path transform="translate(8.97604,38.99689) rotate(-97.204)" d="M21.7,14.8c-0.66274,0 -1.2,0.3134 -1.2,0.7c0,0.3866 0.53726,0.7 1.2,0.7c0.66274,0 1.2,-0.3134 1.2,-0.7c0,-0.3866 -0.53726,-0.7 -1.2,-0.7z" fill="#000004"></path><path d="M26,14.3c-0.55228,0 -1,0.58203 -1,1.3c0,0.71797 0.44772,1.3 1,1.3c0.55228,0 1,-0.58203 1,-1.3c0,-0.71797 -0.44772,-1.3 -1,-1.3z" fill="#000004"></path><path d="M39.3,37.6c-0.4,-0.2 -1.1,-0.5 -1.7,-1.4c-0.3,-0.5 -0.2,-1.9 -0.7,-2.5c-0.3,-0.4 -0.7,-0.2 -0.8,-0.2c-0.9,0.2 -3,1.6 -4.4,0c-0.2,-0.2 -0.5,-0.5 -1,-0.5c-0.5,0 -0.7,0.2 -0.9,0.6c-0.2,0.4 -0.2,0.7 -0.2,1.7c0,0.8 0,1.7 -0.1,2.4c-0.2,1.7 -0.5,2.7 -0.5,3.7c0,1.1 0.3,1.8 0.7,2.1c0.3,0.3 0.8,0.5 1.9,0.5c1.1,0 1.8,-0.4 2.5,-1.1c0.5,-0.5 0.9,-0.7 2.3,-1.7c1.1,-0.7 2.8,-1.6 3.1,-1.9c0.2,-0.2 0.5,-0.3 0.5,-0.9c0,-0.5 -0.4,-0.7 -0.7,-0.8zM19.2,37.9c-1,-1.6 -1.1,-1.9 -1.8,-2.9c-0.6,-1 -1.9,-2.9 -2.7,-2.9c-0.6,0 -0.9,0.3 -1.3,0.7c-0.4,0.4 -0.8,1.3 -1.5,1.8c-0.6,0.5 -2.3,0.4 -2.7,1c-0.4,0.6 0.4,1.5 0.4,3c0,0.6 -0.5,1 -0.6,1.4c-0.1,0.5 -0.2,0.8 0,1.2c0.4,0.6 0.9,0.8 4.3,1.5c1.8,0.4 3.5,1.4 4.6,1.5c1.1,0.1 3,0 3,-2.7c0.1,-1.6 -0.8,-2 -1.7,-3.6zM21.1,19.8c-0.6,-0.4 -1.1,-0.8 -1.1,-1.4c0,-0.6 0.4,-0.8 1,-1.3c0.1,-0.1 1.2,-1.1 2.3,-1.1c1.1,0 2.4,0.7 2.9,0.9c0.9,0.2 1.8,0.4 1.7,1.1c-0.1,1 -0.2,1.2 -1.2,1.7c-0.7,0.2 -2,1.3 -2.9,1.3c-0.4,0 -1,0 -1.4,-0.1c-0.3,-0.1 -0.8,-0.6 -1.3,-1.1z" fill="#b907ff"></path><g fill="#634703"><path d="M20.9,19c0.2,0.2 0.5,0.4 0.8,0.5c0.2,0.1 0.5,0.2 0.5,0.2c0.4,0 0.7,0 0.9,0c0.5,0 1.2,-0.2 1.9,-0.6c0.7,-0.3 0.8,-0.5 1.3,-0.7c0.5,-0.3 1,-0.6 0.8,-0.7c-0.2,-0.1 -0.4,0 -1.1,0.4c-0.6,0.4 -1.1,0.6 -1.7,0.9c-0.3,0.1 -0.7,0.3 -1,0.3c-0.3,0 -0.6,0 -0.9,0c-0.3,0 -0.5,-0.1 -0.8,-0.2c-0.2,-0.1 -0.3,-0.2 -0.4,-0.2c-0.2,-0.1 -0.6,-0.5 -0.8,-0.6c0,0 -0.2,0 -0.1,0.1c0.3,0.3 0.4,0.4 0.6,0.6zM23.9,16.8c0.1,0.2 0.3,0.2 0.4,0.3c0.1,0.1 0.2,0.1 0.2,0.1c0.1,-0.1 0,-0.3 -0.1,-0.3c0,-0.2 -0.5,-0.2 -0.5,-0.1zM22.3,17c0,0.1 0.2,0.2 0.2,0.1c0.1,-0.1 0.2,-0.2 0.3,-0.2c0.2,-0.1 0.1,-0.2 -0.2,-0.2c-0.2,0.1 -0.2,0.2 -0.3,0.3z"></path></g><path d="M32,34.7c0,0.1 0,0.2 0,0.3c0.2,0.4 0.7,0.5 1.1,0.5c0.6,0 1.2,-0.4 1.5,-0.8c0,-0.1 0.1,-0.2 0.2,-0.3c0.2,-0.3 0.3,-0.5 0.4,-0.6c0,0 -0.1,-0.1 -0.1,-0.2c-0.1,-0.2 -0.4,-0.4 -0.8,-0.5c-0.3,-0.1 -0.8,-0.2 -1,-0.2c-0.9,-0.1 -1.4,0.2 -1.7,0.5c0,0 0.1,0 0.1,0.1c0.2,0.2 0.3,0.4 0.3,0.7c0.1,0.2 0,0.3 0,0.5z" fill="#455a64"></path></g></g></svg>