<svg xmlns="http://www.w3.org/2000/svg" xmlns:xlink="http://www.w3.org/1999/xlink" viewBox="0,0,256,256" width="45px" height="45px" fill-rule="nonzero"><g transform="translate(21.33333,21.33333) scale(0.83333,0.83333)"><g fill="none" fill-rule="nonzero" stroke="none" stroke-width="1" stroke-linecap="butt" stroke-linejoin="miter" stroke-miterlimit="10" stroke-dasharray="" stroke-dashoffset="0" font-family="none" font-weight="none" font-size="none" text-anchor="none" style="mix-blend-mode: normal"><g transform="scale(10.66667,10.66667)"><path d="M3.345,21.601l-1.926,-21.601h21.162l-1.928,21.597l-8.666,2.403z" fill="#5540af"></path><path d="M12,22.164l7.003,-1.941l1.647,-18.457h-8.65z" fill="#8b03e5"></path><path d="M12,9.778h-3.506l-0.242,-2.713h3.748v-2.649h-6.643l0.063,0.71l0.651,7.301h5.929zM12,16.658l-0.012,0.003l-2.95,-0.797l-0.189,-2.113h-2.659l0.371,4.16l5.427,1.506l0.012,-0.003z" fill="#ebebeb"></path><path d="M11.991,9.778v2.649h3.262l-0.308,3.436l-2.955,0.797v2.756l5.431,-1.505l0.04,-0.448l0.623,-6.975l0.065,-0.711h-0.714zM11.991,4.416v2.649h6.399l0.053,-0.596l0.121,-1.343l0.063,-0.711z" fill="#ffffff"></path></g></g></g></svg>