<svg xmlns="http://www.w3.org/2000/svg" xmlns:xlink="http://www.w3.org/1999/xlink" viewBox="0,0,256,256" width="150px" height="150px" fill-rule="nonzero"><g transform=""><g fill="#ffffff" fill-rule="nonzero" stroke="none" stroke-width="1" stroke-linecap="butt" stroke-linejoin="miter" stroke-miterlimit="10" stroke-dasharray="" stroke-dashoffset="0" font-family="none" font-weight="none" font-size="none" text-anchor="none" style="mix-blend-mode: normal"><g transform="scale(3.2,3.2)"><path d="M15,9v62h32.4043c-1.078,-0.566 -2.09534,-1.231 -3.02734,-2h-27.37695v-58h32v14h14v14.71289c0.692,0.33 1.362,0.69733 2,1.11133v-17.23828l-14.58594,-14.58594zM51,12.41406l10.58594,10.58594h-10.58594zM22,13c-0.55228,0 -1,0.44772 -1,1c0,0.55228 0.44772,1 1,1c0.55228,0 1,-0.44772 1,-1c0,-0.55228 -0.44772,-1 -1,-1zM22,17c-0.55228,0 -1,0.44772 -1,1c0,0.55228 0.44772,1 1,1c0.55228,0 1,-0.44772 1,-1c0,-0.55228 -0.44772,-1 -1,-1zM22,21c-0.55228,0 -1,0.44772 -1,1c0,0.55228 0.44772,1 1,1c0.55228,0 1,-0.44772 1,-1c0,-0.55228 -0.44772,-1 -1,-1zM22,25c-0.55228,0 -1,0.44772 -1,1c0,0.55228 0.44772,1 1,1c0.55228,0 1,-0.44772 1,-1c0,-0.55228 -0.44772,-1 -1,-1zM22,29c-0.55228,0 -1,0.44772 -1,1c0,0.55228 0.44772,1 1,1c0.55228,0 1,-0.44772 1,-1c0,-0.55228 -0.44772,-1 -1,-1zM22,33c-0.55228,0 -1,0.44772 -1,1c0,0.55228 0.44772,1 1,1c0.55228,0 1,-0.44772 1,-1c0,-0.55228 -0.44772,-1 -1,-1zM28,35v2h27v-2zM22,37c-0.55228,0 -1,0.44772 -1,1c0,0.55228 0.44772,1 1,1c0.55228,0 1,-0.44772 1,-1c0,-0.55228 -0.44772,-1 -1,-1zM22,41c-0.55228,0 -1,0.44772 -1,1c0,0.55228 0.44772,1 1,1c0.55228,0 1,-0.44772 1,-1c0,-0.55228 -0.44772,-1 -1,-1zM28,41v2h15.27539c0.752,-0.735 1.5635,-1.409 2.4375,-2zM55.5,41c-7.99628,0 -14.5,6.50372 -14.5,14.5c0,7.99628 6.50372,14.5 14.5,14.5c3.63882,0 6.95939,-1.35674 9.50781,-3.57812l3.59766,3.59766l-0.03711,0.03711c-0.756,0.755 -0.756,1.98423 0,2.74023l6.63477,6.63672c0.366,0.366 0.85409,0.56641 1.37109,0.56641c0.517,0 1.00414,-0.20236 1.36914,-0.56836l1.48828,-1.48828c0.756,-0.755 0.75695,-1.98523 0.00195,-2.74023l-6.63672,-6.63477c-0.734,-0.732 -2.01023,-0.732 -2.74023,0l-0.03711,0.03711l-3.59766,-3.59766c2.22139,-2.54842 3.57813,-5.86899 3.57813,-9.50781c0,-7.99628 -6.50372,-14.5 -14.5,-14.5zM55.5,43c6.9154,0 12.5,5.5846 12.5,12.5c0,6.9154 -5.5846,12.5 -12.5,12.5c-6.9154,0 -12.5,-5.5846 -12.5,-12.5c0,-6.9154 5.5846,-12.5 12.5,-12.5zM22,45c-0.55228,0 -1,0.44772 -1,1c0,0.55228 0.44772,1 1,1c0.55228,0 1,-0.44772 1,-1c0,-0.55228 -0.44772,-1 -1,-1zM28,47v2h11.26563c0.277,-0.689 0.59122,-1.357 0.94922,-2zM22,49c-0.55228,0 -1,0.44772 -1,1c0,0.55228 0.44772,1 1,1c0.55228,0 1,-0.44772 1,-1c0,-0.55228 -0.44772,-1 -1,-1zM47.26953,49c-0.919,1.161 -1.59303,2.519 -1.95703,4h15.6875v-4zM22,53c-0.55228,0 -1,0.44772 -1,1c0,0.55228 0.44772,1 1,1c0.55228,0 1,-0.44772 1,-1c0,-0.55228 -0.44772,-1 -1,-1zM28,53v2h10.02539c0.019,-0.678 0.07983,-1.344 0.17383,-2zM22,57c-0.55228,0 -1,0.44772 -1,1c0,0.55228 0.44772,1 1,1c0.55228,0 1,-0.44772 1,-1c0,-0.55228 -0.44772,-1 -1,-1zM45.11914,57c0.209,1.45 0.71312,2.803 1.45313,4h9.42773v-4zM22,61c-0.55228,0 -1,0.44772 -1,1c0,0.55228 0.44772,1 1,1c0.55228,0 1,-0.44772 1,-1c0,-0.55228 -0.44772,-1 -1,-1zM22,65c-0.55228,0 -1,0.44772 -1,1c0,0.55228 0.44772,1 1,1c0.55228,0 1,-0.44772 1,-1c0,-0.55228 -0.44772,-1 -1,-1zM71.38281,69.98242l6.63477,6.54688l-1.40039,1.48828l-6.59375,-6.5918z"></path></g></g><g fill="#ffffff" fill-rule="nonzero" stroke="none" stroke-width="1" stroke-linecap="butt" stroke-linejoin="miter" stroke-miterlimit="10" stroke-dasharray="" stroke-dashoffset="0" font-family="none" font-weight="none" font-size="none" text-anchor="none" style="mix-blend-mode: normal"><g id="text"><path d="M95.92,95.795l-1.71,-3.33h-1.49v3.33h-1.88v-9.1h3.38c1.08,0 1.91,0.24 2.49,0.72c0.58667,0.48 0.88,1.15667 0.88,2.03v0c0,0.62 -0.13667,1.13667 -0.41,1.55c-0.26667,0.42 -0.67333,0.75 -1.22,0.99v0l1.97,3.72v0.09zM92.72,88.215v2.73h1.51c0.47333,0 0.83667,-0.12 1.09,-0.36c0.26,-0.24 0.39,-0.57 0.39,-0.99v0c0,-0.42667 -0.12,-0.76333 -0.36,-1.01c-0.24667,-0.24667 -0.62333,-0.37 -1.13,-0.37v0zM104.49,90.385v1.47h-3.6v2.43h4.22v1.51h-6.1v-9.1h6.09v1.52h-4.21v2.17zM113.67,91.045v0.41c0,0.84667 -0.13667,1.58333 -0.41,2.21c-0.27333,0.62667 -0.65333,1.13 -1.14,1.51v0l1.51,1.19l-1.19,1.06l-1.94,-1.56c-0.22,0.04 -0.45,0.06 -0.69,0.06v0c-0.75333,0 -1.42667,-0.18333 -2.02,-0.55c-0.58667,-0.36 -1.04333,-0.87667 -1.37,-1.55c-0.32667,-0.67333 -0.49333,-1.44667 -0.5,-2.32v0v-0.45c0,-0.9 0.16333,-1.69 0.49,-2.37c0.32,-0.68 0.77667,-1.20333 1.37,-1.57c0.58667,-0.36 1.26,-0.54 2.02,-0.54c0.76,0 1.43333,0.18 2.02,0.54c0.59333,0.36667 1.05,0.89 1.37,1.57c0.32,0.68 0.48,1.46667 0.48,2.36zM111.77,91.485v-0.45c0,-0.95333 -0.17,-1.67667 -0.51,-2.17c-0.34,-0.49333 -0.82667,-0.74 -1.46,-0.74v0c-0.62667,0 -1.11333,0.24333 -1.46,0.73c-0.34,0.48667 -0.51333,1.20333 -0.52,2.15v0v0.45c0,0.92667 0.17333,1.64667 0.52,2.16c0.34,0.51333 0.83,0.77 1.47,0.77v0c0.63333,0 1.11667,-0.24667 1.45,-0.74c0.34,-0.49333 0.51,-1.21333 0.51,-2.16zM120.06,86.695h1.88v5.99c0,1 -0.31333,1.79 -0.94,2.37c-0.62,0.58 -1.47,0.87 -2.55,0.87v0c-1.06,0 -1.90333,-0.28333 -2.53,-0.85c-0.62667,-0.56 -0.94667,-1.33333 -0.96,-2.32v0v-6.06h1.88v6.01c0,0.59333 0.14,1.02667 0.42,1.3c0.28667,0.27333 0.68333,0.41 1.19,0.41v0c1.05333,0 1.59,-0.55333 1.61,-1.66v0zM128.95,90.385v1.47h-3.6v2.43h4.22v1.51h-6.1v-9.1h6.09v1.52h-4.21v2.17zM135.75,95.795l-1.71,-3.33h-1.49v3.33h-1.88v-9.1h3.39c1.07333,0 1.9,0.24 2.48,0.72c0.58667,0.48 0.88,1.15667 0.88,2.03v0c0,0.62 -0.13667,1.13667 -0.41,1.55c-0.26667,0.42 -0.67333,0.75 -1.22,0.99v0l1.97,3.72v0.09zM132.55,88.215v2.73h1.51c0.47333,0 0.84,-0.12 1.1,-0.36c0.25333,-0.24 0.38,-0.57 0.38,-0.99v0c0,-0.42667 -0.12,-0.76333 -0.36,-1.01c-0.24667,-0.24667 -0.62,-0.37 -1.12,-0.37v0zM140.84,86.695v9.1h-1.88v-9.1zM142.57,86.695h2.45l2.34,6.6l2.33,-6.6h2.46v9.1h-1.88v-2.49l0.19,-4.29l-2.46,6.78h-1.29l-2.45,-6.77l0.19,4.28v2.49h-1.88zM155.78,86.695v9.1h-1.87v-9.1zM162.99,90.385v1.47h-3.6v2.43h4.23v1.51h-6.1v-9.1h6.09v1.52h-4.22v2.17zM172.12,86.695v9.1h-1.88l-3.65,-5.99v5.99h-1.87v-9.1h1.87l3.66,6v-6zM180.42,86.695v1.52h-2.78v7.58h-1.88v-7.58h-2.75v-1.52zM188.79,91.045v0.41c0,0.89333 -0.15667,1.67667 -0.47,2.35c-0.32,0.68 -0.77333,1.20333 -1.36,1.57c-0.59333,0.36667 -1.27,0.55 -2.03,0.55v0c-0.75333,0 -1.42667,-0.18333 -2.02,-0.55c-0.59333,-0.36 -1.05,-0.87667 -1.37,-1.55c-0.32667,-0.67333 -0.49333,-1.44667 -0.5,-2.32v0v-0.45c0,-0.9 0.16333,-1.69 0.49,-2.37c0.32,-0.68 0.77667,-1.20333 1.37,-1.57c0.58667,-0.36 1.26,-0.54 2.02,-0.54c0.76,0 1.43333,0.18 2.02,0.54c0.58667,0.36667 1.04333,0.89 1.37,1.57c0.32,0.68 0.48,1.46667 0.48,2.36zM186.89,91.485v-0.45c0,-0.95333 -0.17,-1.67667 -0.51,-2.17c-0.34,-0.49333 -0.82667,-0.74 -1.46,-0.74v0c-0.63333,0 -1.12,0.24333 -1.46,0.73c-0.34,0.48667 -0.51333,1.20333 -0.52,2.15v0v0.45c0,0.92667 0.17333,1.64667 0.52,2.16c0.34,0.51333 0.83,0.77 1.47,0.77v0c0.62667,0 1.11,-0.24667 1.45,-0.74c0.34,-0.49333 0.51,-1.21333 0.51,-2.16zM194.87,93.405v0c0,-0.35333 -0.12333,-0.62333 -0.37,-0.81c-0.25333,-0.19333 -0.70333,-0.39333 -1.35,-0.6c-0.65333,-0.21333 -1.16667,-0.42 -1.54,-0.62v0c-1.03333,-0.56 -1.55,-1.31333 -1.55,-2.26v0c0,-0.49333 0.13667,-0.93333 0.41,-1.32c0.28,-0.38667 0.67667,-0.68667 1.19,-0.9c0.52,-0.21333 1.10333,-0.32 1.75,-0.32v0c0.65333,0 1.23333,0.11667 1.74,0.35c0.50667,0.23333 0.9,0.56667 1.18,1c0.28667,0.42667 0.43,0.91333 0.43,1.46v0h-1.88c0,-0.42 -0.13,-0.74333 -0.39,-0.97c-0.26667,-0.23333 -0.63667,-0.35 -1.11,-0.35v0c-0.46,0 -0.81667,0.09667 -1.07,0.29c-0.25333,0.19333 -0.38,0.45 -0.38,0.77v0c0,0.29333 0.15,0.54 0.45,0.74c0.29333,0.2 0.73,0.38667 1.31,0.56v0c1.06667,0.32 1.84333,0.72 2.33,1.2c0.49333,0.47333 0.74,1.06333 0.74,1.77v0c0,0.78667 -0.3,1.40333 -0.9,1.85c-0.59333,0.45333 -1.39333,0.68 -2.4,0.68v0c-0.7,0 -1.34,-0.13 -1.92,-0.39c-0.57333,-0.25333 -1.01,-0.60333 -1.31,-1.05c-0.30667,-0.44667 -0.46,-0.96333 -0.46,-1.55v0h1.89c0,1 0.6,1.5 1.8,1.5v0c0.44,0 0.78667,-0.09 1.04,-0.27c0.24667,-0.18 0.37,-0.43333 0.37,-0.76z"></path></g></g></g></svg>