<svg xmlns="http://www.w3.org/2000/svg" xmlns:xlink="http://www.w3.org/1999/xlink" viewBox="0,0,256,256" width="150px" height="150px" fill-rule="nonzero"><g transform=""><g fill="#000000" fill-rule="nonzero" stroke="none" stroke-width="1" stroke-linecap="butt" stroke-linejoin="miter" stroke-miterlimit="10" stroke-dasharray="" stroke-dashoffset="0" font-family="none" font-weight="none" font-size="none" text-anchor="none" style="mix-blend-mode: normal"><g transform="scale(3.2,3.2)"><path d="M19,9c-2.19922,0 -4,1.80078 -4,4v9c0,1.21094 0.57813,2.26563 1.4375,3c-0.85937,0.73438 -1.4375,1.78906 -1.4375,3v9c0,1.21094 0.57813,2.26563 1.4375,3c-0.85937,0.73438 -1.4375,1.78906 -1.4375,3v9c0,1.21094 0.57813,2.26563 1.4375,3c-0.85937,0.73438 -1.4375,1.78906 -1.4375,3v9c0,2.19922 1.80078,4 4,4h42c2.19922,0 4,-1.80078 4,-4v-9c0,-1.21094 -0.57812,-2.26562 -1.4375,-3c0.85938,-0.73437 1.4375,-1.78906 1.4375,-3v-9c0,-1.21094 -0.57812,-2.26562 -1.4375,-3c0.85938,-0.73437 1.4375,-1.78906 1.4375,-3v-9c0,-1.21094 -0.57812,-2.26562 -1.4375,-3c0.85938,-0.73437 1.4375,-1.78906 1.4375,-3v-9c0,-2.19922 -1.80078,-4 -4,-4zM19,11h42c1.11719,0 2,0.88281 2,2v9c0,1.11719 -0.88281,2 -2,2v2c1.11719,0 2,0.88281 2,2v9c0,1.11719 -0.88281,2 -2,2v2c1.11719,0 2,0.88281 2,2v9c0,1.11719 -0.88281,2 -2,2v2c1.11719,0 2,0.88281 2,2v9c0,1.11719 -0.88281,2 -2,2h-42c-1.11719,0 -2,-0.88281 -2,-2v-9c0,-1.11719 0.88281,-2 2,-2v-2c-1.11719,0 -2,-0.88281 -2,-2v-9c0,-1.11719 0.88281,-2 2,-2v-2c-1.11719,0 -2,-0.88281 -2,-2v-9c0,-1.11719 0.88281,-2 2,-2v-2c-1.11719,0 -2,-0.88281 -2,-2v-9c0,-1.11719 0.88281,-2 2,-2zM45,16v2h6v-2zM22,24c-0.55078,0 -1,0.44922 -1,1c0,0.55078 0.44922,1 1,1c0.55078,0 1,-0.44922 1,-1c0,-0.55078 -0.44922,-1 -1,-1zM26,24c-0.55078,0 -1,0.44922 -1,1c0,0.55078 0.44922,1 1,1c0.55078,0 1,-0.44922 1,-1c0,-0.55078 -0.44922,-1 -1,-1zM30,24c-0.55078,0 -1,0.44922 -1,1c0,0.55078 0.44922,1 1,1c0.55078,0 1,-0.44922 1,-1c0,-0.55078 -0.44922,-1 -1,-1zM34,24c-0.55078,0 -1,0.44922 -1,1c0,0.55078 0.44922,1 1,1c0.55078,0 1,-0.44922 1,-1c0,-0.55078 -0.44922,-1 -1,-1zM38,24c-0.55078,0 -1,0.44922 -1,1c0,0.55078 0.44922,1 1,1c0.55078,0 1,-0.44922 1,-1c0,-0.55078 -0.44922,-1 -1,-1zM42,24c-0.55078,0 -1,0.44922 -1,1c0,0.55078 0.44922,1 1,1c0.55078,0 1,-0.44922 1,-1c0,-0.55078 -0.44922,-1 -1,-1zM46,24c-0.55078,0 -1,0.44922 -1,1c0,0.55078 0.44922,1 1,1c0.55078,0 1,-0.44922 1,-1c0,-0.55078 -0.44922,-1 -1,-1zM50,24c-0.55078,0 -1,0.44922 -1,1c0,0.55078 0.44922,1 1,1c0.55078,0 1,-0.44922 1,-1c0,-0.55078 -0.44922,-1 -1,-1zM54,24c-0.55078,0 -1,0.44922 -1,1c0,0.55078 0.44922,1 1,1c0.55078,0 1,-0.44922 1,-1c0,-0.55078 -0.44922,-1 -1,-1zM58,24c-0.55078,0 -1,0.44922 -1,1c0,0.55078 0.44922,1 1,1c0.55078,0 1,-0.44922 1,-1c0,-0.55078 -0.44922,-1 -1,-1zM45,31v2h6v-2zM22,39c-0.55078,0 -1,0.44922 -1,1c0,0.55078 0.44922,1 1,1c0.55078,0 1,-0.44922 1,-1c0,-0.55078 -0.44922,-1 -1,-1zM26,39c-0.55078,0 -1,0.44922 -1,1c0,0.55078 0.44922,1 1,1c0.55078,0 1,-0.44922 1,-1c0,-0.55078 -0.44922,-1 -1,-1zM30,39c-0.55078,0 -1,0.44922 -1,1c0,0.55078 0.44922,1 1,1c0.55078,0 1,-0.44922 1,-1c0,-0.55078 -0.44922,-1 -1,-1zM34,39c-0.55078,0 -1,0.44922 -1,1c0,0.55078 0.44922,1 1,1c0.55078,0 1,-0.44922 1,-1c0,-0.55078 -0.44922,-1 -1,-1zM38,39c-0.55078,0 -1,0.44922 -1,1c0,0.55078 0.44922,1 1,1c0.55078,0 1,-0.44922 1,-1c0,-0.55078 -0.44922,-1 -1,-1zM42,39c-0.55078,0 -1,0.44922 -1,1c0,0.55078 0.44922,1 1,1c0.55078,0 1,-0.44922 1,-1c0,-0.55078 -0.44922,-1 -1,-1zM46,39c-0.55078,0 -1,0.44922 -1,1c0,0.55078 0.44922,1 1,1c0.55078,0 1,-0.44922 1,-1c0,-0.55078 -0.44922,-1 -1,-1zM50,39c-0.55078,0 -1,0.44922 -1,1c0,0.55078 0.44922,1 1,1c0.55078,0 1,-0.44922 1,-1c0,-0.55078 -0.44922,-1 -1,-1zM54,39c-0.55078,0 -1,0.44922 -1,1c0,0.55078 0.44922,1 1,1c0.55078,0 1,-0.44922 1,-1c0,-0.55078 -0.44922,-1 -1,-1zM58,39c-0.55078,0 -1,0.44922 -1,1c0,0.55078 0.44922,1 1,1c0.55078,0 1,-0.44922 1,-1c0,-0.55078 -0.44922,-1 -1,-1zM45,46v2h6v-2zM22,54c-0.55078,0 -1,0.44922 -1,1c0,0.55078 0.44922,1 1,1c0.55078,0 1,-0.44922 1,-1c0,-0.55078 -0.44922,-1 -1,-1zM26,54c-0.55078,0 -1,0.44922 -1,1c0,0.55078 0.44922,1 1,1c0.55078,0 1,-0.44922 1,-1c0,-0.55078 -0.44922,-1 -1,-1zM30,54c-0.55078,0 -1,0.44922 -1,1c0,0.55078 0.44922,1 1,1c0.55078,0 1,-0.44922 1,-1c0,-0.55078 -0.44922,-1 -1,-1zM34,54c-0.55078,0 -1,0.44922 -1,1c0,0.55078 0.44922,1 1,1c0.55078,0 1,-0.44922 1,-1c0,-0.55078 -0.44922,-1 -1,-1zM38,54c-0.55078,0 -1,0.44922 -1,1c0,0.55078 0.44922,1 1,1c0.55078,0 1,-0.44922 1,-1c0,-0.55078 -0.44922,-1 -1,-1zM42,54c-0.55078,0 -1,0.44922 -1,1c0,0.55078 0.44922,1 1,1c0.55078,0 1,-0.44922 1,-1c0,-0.55078 -0.44922,-1 -1,-1zM46,54c-0.55078,0 -1,0.44922 -1,1c0,0.55078 0.44922,1 1,1c0.55078,0 1,-0.44922 1,-1c0,-0.55078 -0.44922,-1 -1,-1zM50,54c-0.55078,0 -1,0.44922 -1,1c0,0.55078 0.44922,1 1,1c0.55078,0 1,-0.44922 1,-1c0,-0.55078 -0.44922,-1 -1,-1zM54,54c-0.55078,0 -1,0.44922 -1,1c0,0.55078 0.44922,1 1,1c0.55078,0 1,-0.44922 1,-1c0,-0.55078 -0.44922,-1 -1,-1zM58,54c-0.55078,0 -1,0.44922 -1,1c0,0.55078 0.44922,1 1,1c0.55078,0 1,-0.44922 1,-1c0,-0.55078 -0.44922,-1 -1,-1zM45,61v2h6v-2z"></path></g></g><g fill="#5540af" fill-rule="nonzero" stroke="none" stroke-width="1" stroke-linecap="butt" stroke-linejoin="miter" stroke-miterlimit="10" stroke-dasharray="" stroke-dashoffset="0" font-family="none" font-weight="none" font-size="none" text-anchor="none" style="mix-blend-mode: normal"><g id="text"><path d="M59.15,91.045v0c0,-1.94 0.65333,-3.51667 1.96,-4.73c1.30667,-1.20667 2.94333,-1.81 4.91,-1.81v0c2,0 3.65333,0.60333 4.96,1.81c1.30667,1.21333 1.96,2.79 1.96,4.73v0c0,1.91333 -0.64667,3.46667 -1.94,4.66c-1.29333,1.19333 -2.95333,1.79 -4.98,1.79v0c-1.99333,0 -3.63667,-0.59667 -4.93,-1.79c-1.29333,-1.19333 -1.94,-2.74667 -1.94,-4.66zM84.25,91.045v0c0,-1.94 0.65333,-3.51667 1.96,-4.73c1.30667,-1.20667 2.94333,-1.81 4.91,-1.81v0c2,0 3.65333,0.60333 4.96,1.81c1.30667,1.21333 1.96,2.79 1.96,4.73v0c0,1.91333 -0.64667,3.46667 -1.94,4.66c-1.29333,1.19333 -2.95333,1.79 -4.98,1.79v0c-1.99333,0 -3.63667,-0.59667 -4.93,-1.79c-1.29333,-1.19333 -1.94,-2.74667 -1.94,-4.66zM109.35,91.045v0c0,-1.94 0.65333,-3.51667 1.96,-4.73c1.30667,-1.20667 2.94667,-1.81 4.92,-1.81v0c1.99333,0 3.64333,0.60333 4.95,1.81c1.30667,1.21333 1.96,2.79 1.96,4.73v0c0,1.91333 -0.64667,3.46667 -1.94,4.66c-1.29333,1.19333 -2.95,1.79 -4.97,1.79v0c-2,0 -3.64667,-0.59667 -4.94,-1.79c-1.29333,-1.19333 -1.94,-2.74667 -1.94,-4.66zM134.45,91.045v0c0,-1.94 0.65333,-3.51667 1.96,-4.73c1.30667,-1.20667 2.94667,-1.81 4.92,-1.81v0c1.99333,0 3.64333,0.60333 4.95,1.81c1.31333,1.21333 1.97,2.79 1.97,4.73v0c0,1.91333 -0.65,3.46667 -1.95,4.66c-1.29333,1.19333 -2.95,1.79 -4.97,1.79v0c-2,0 -3.64667,-0.59667 -4.94,-1.79c-1.29333,-1.19333 -1.94,-2.74667 -1.94,-4.66zM159.55,91.045v0c0,-1.94 0.65333,-3.51667 1.96,-4.73c1.31333,-1.20667 2.95333,-1.81 4.92,-1.81v0c1.99333,0 3.64667,0.60333 4.96,1.81c1.30667,1.21333 1.96,2.79 1.96,4.73v0c0,1.91333 -0.64667,3.46667 -1.94,4.66c-1.29333,1.19333 -2.95333,1.79 -4.98,1.79v0c-2,0 -3.64667,-0.59667 -4.94,-1.79c-1.29333,-1.19333 -1.94,-2.74667 -1.94,-4.66zM184.65,91.045v0c0,-1.94 0.65667,-3.51667 1.97,-4.73c1.30667,-1.20667 2.94333,-1.81 4.91,-1.81v0c2,0 3.65333,0.60333 4.96,1.81c1.30667,1.21333 1.96,2.79 1.96,4.73v0c0,1.91333 -0.64667,3.46667 -1.94,4.66c-1.29333,1.19333 -2.95333,1.79 -4.98,1.79v0c-2,0 -3.64667,-0.59667 -4.94,-1.79c-1.29333,-1.19333 -1.94,-2.74667 -1.94,-4.66z"></path></g></g></g></svg>