<svg xmlns="http://www.w3.org/2000/svg" xmlns:xlink="http://www.w3.org/1999/xlink" viewBox="0,0,256,256" width="128px" height="128px" fill-rule="nonzero"><g fill="#ffffff" fill-rule="nonzero" stroke="none" stroke-width="1" stroke-linecap="butt" stroke-linejoin="miter" stroke-miterlimit="10" stroke-dasharray="" stroke-dashoffset="0" font-family="none" font-weight="none" font-size="none" text-anchor="none" style="mix-blend-mode: normal"><g transform="scale(4,4)"><path d="M7.5,44h1v-25c0,-0.827 0.673,-1.5 1.5,-1.5h5.26v-1h-5.26c-1.379,0 -2.5,1.122 -2.5,2.5z"></path><path d="M56.5,44v-25c0,-1.378 -1.121,-2.5 -2.5,-2.5h-5.26v1h5.26c0.827,0 1.5,0.673 1.5,1.5v25z"></path><path d="M10.5,21c0,-0.276 0.225,-0.5 0.5,-0.5h3.65v-1h-3.65c-0.827,0 -1.5,0.673 -1.5,1.5v23h1z"></path><path d="M54.5,44v-23c0,-0.827 -0.673,-1.5 -1.5,-1.5h-3.65v1h3.65c0.275,0 0.5,0.224 0.5,0.5v23z"></path><path d="M59,45.5c-5.821,0 -48.299,0 -54,0c-0.827,0 -1.5,0.673 -1.5,1.5c0,3.033 2.468,5.5 5.5,5.5h46c3.034,0 5.5,-2.446 5.5,-5.5c0,-0.827 -0.673,-1.5 -1.5,-1.5zM37.5,46.5v0.5c0,0.276 -0.225,0.5 -0.5,0.5h-10c-0.275,0 -0.5,-0.224 -0.5,-0.5v-0.5zM55,51.5h-46c-2.481,0 -4.5,-2.019 -4.5,-4.5c0,-0.276 0.225,-0.5 0.5,-0.5h20.5v0.5c0,0.827 0.673,1.5 1.5,1.5h10c0.827,0 1.5,-0.673 1.5,-1.5v-0.5h20.5c0.275,0 0.5,0.224 0.5,0.5c0,2.504 -2.019,4.5 -4.5,4.5z"></path><path d="M17,33.5h-4c-0.827,0 -1.5,0.673 -1.5,1.5c0,0.827 0.673,1.5 1.5,1.5h4c0.827,0 1.5,-0.673 1.5,-1.5c0,-0.827 -0.673,-1.5 -1.5,-1.5zM17,35.5h-4c-0.275,0 -0.5,-0.224 -0.5,-0.5c0,-0.276 0.225,-0.5 0.5,-0.5h4c0.275,0 0.5,0.224 0.5,0.5c0,0.276 -0.225,0.5 -0.5,0.5z"></path><path d="M17,37.5h-4c-0.827,0 -1.5,0.673 -1.5,1.5c0,0.827 0.673,1.5 1.5,1.5h4c0.827,0 1.5,-0.673 1.5,-1.5c0,-0.827 -0.673,-1.5 -1.5,-1.5zM17,39.5h-4c-0.275,0 -0.5,-0.224 -0.5,-0.5c0,-0.276 0.225,-0.5 0.5,-0.5h4c0.275,0 0.5,0.224 0.5,0.5c0,0.276 -0.225,0.5 -0.5,0.5z"></path><path d="M51,33.5h-4c-0.827,0 -1.5,0.673 -1.5,1.5c0,0.827 0.673,1.5 1.5,1.5h4c0.827,0 1.5,-0.673 1.5,-1.5c0,-0.827 -0.673,-1.5 -1.5,-1.5zM51,35.5h-4c-0.275,0 -0.5,-0.224 -0.5,-0.5c0,-0.276 0.225,-0.5 0.5,-0.5h4c0.275,0 0.5,0.224 0.5,0.5c0,0.276 -0.225,0.5 -0.5,0.5z"></path><path d="M51,37.5h-4c-0.827,0 -1.5,0.673 -1.5,1.5c0,0.827 0.673,1.5 1.5,1.5h4c0.827,0 1.5,-0.673 1.5,-1.5c0,-0.827 -0.673,-1.5 -1.5,-1.5zM51,39.5h-4c-0.275,0 -0.5,-0.224 -0.5,-0.5c0,-0.276 0.225,-0.5 0.5,-0.5h4c0.275,0 0.5,0.224 0.5,0.5c0,0.276 -0.225,0.5 -0.5,0.5z"></path><path d="M29,40.5h6c0.827,0 1.5,-0.673 1.5,-1.5v-1.22c1.897,-0.621 3.674,-1.649 5.176,-2.998l1.064,0.615c0.716,0.414 1.636,0.167 2.049,-0.549l3,-5.196c0.415,-0.715 0.171,-1.635 -0.549,-2.049l-1.063,-0.614c0.43,-2.022 0.431,-3.955 0,-5.979l1.063,-0.614c0.721,-0.416 0.963,-1.334 0.549,-2.049l-3,-5.197c-0.413,-0.715 -1.333,-0.961 -2.049,-0.548l-1.064,0.615c-1.502,-1.349 -3.278,-2.377 -5.176,-2.998v-1.219c0,-0.827 -0.673,-1.5 -1.5,-1.5h-6c-0.827,0 -1.5,0.673 -1.5,1.5v1.22c-1.897,0.621 -3.674,1.649 -5.176,2.998l-1.064,-0.615c-0.717,-0.413 -1.636,-0.167 -2.049,0.549l-3,5.196c-0.411,0.709 -0.176,1.63 0.549,2.049l1.063,0.614c-0.43,2.022 -0.431,3.955 0,5.979l-1.063,0.614c-0.721,0.416 -0.963,1.334 -0.549,2.049l3,5.197c0.413,0.714 1.332,0.962 2.049,0.548l1.064,-0.615c1.502,1.349 3.278,2.377 5.176,2.998v1.219c0,0.827 0.673,1.5 1.5,1.5zM22.736,33.802c-0.162,-0.153 -0.402,-0.18 -0.594,-0.07l-1.383,0.798c-0.237,0.137 -0.546,0.056 -0.684,-0.183l-3,-5.197c-0.138,-0.239 -0.056,-0.544 0.184,-0.682l1.382,-0.798c0.191,-0.11 0.287,-0.333 0.236,-0.548c-0.497,-2.092 -0.509,-4.1 0,-6.246c0.051,-0.215 -0.045,-0.438 -0.236,-0.548l-1.382,-0.798c-0.238,-0.137 -0.322,-0.441 -0.184,-0.683l3,-5.196c0.138,-0.24 0.446,-0.321 0.684,-0.183l1.383,0.798c0.191,0.11 0.432,0.083 0.594,-0.07c1.537,-1.453 3.406,-2.536 5.406,-3.131c0.212,-0.063 0.357,-0.258 0.357,-0.479v-1.586c0,-0.276 0.225,-0.5 0.5,-0.5h6c0.275,0 0.5,0.224 0.5,0.5v1.587c0,0.221 0.146,0.416 0.357,0.479c2,0.596 3.869,1.679 5.406,3.131c0.161,0.152 0.402,0.18 0.594,0.07l1.383,-0.798c0.236,-0.138 0.545,-0.057 0.684,0.183l3,5.197c0.138,0.239 0.056,0.544 -0.184,0.682l-1.382,0.798c-0.191,0.11 -0.287,0.333 -0.236,0.548c0.497,2.092 0.509,4.1 0,6.246c-0.051,0.215 0.045,0.438 0.236,0.548l1.382,0.798c0.238,0.137 0.322,0.441 0.184,0.683l-3,5.196c-0.139,0.239 -0.447,0.32 -0.684,0.183l-1.383,-0.798c-0.191,-0.11 -0.433,-0.083 -0.594,0.07c-1.537,1.453 -3.406,2.536 -5.406,3.131c-0.212,0.063 -0.357,0.258 -0.357,0.479v1.587c0,0.276 -0.225,0.5 -0.5,0.5h-6c-0.275,0 -0.5,-0.224 -0.5,-0.5v-1.587c0,-0.221 -0.146,-0.416 -0.357,-0.479c-1.999,-0.596 -3.869,-1.679 -5.406,-3.132z"></path><path d="M42.5,24c0,-5.79 -4.71,-10.5 -10.5,-10.5c-5.79,0 -10.5,4.71 -10.5,10.5c0,5.79 4.71,10.5 10.5,10.5c5.79,0 10.5,-4.71 10.5,-10.5zM22.5,24c0,-5.238 4.262,-9.5 9.5,-9.5c5.238,0 9.5,4.262 9.5,9.5c0,5.238 -4.262,9.5 -9.5,9.5c-5.238,0 -9.5,-4.262 -9.5,-9.5z"></path><path d="M28.01,20.688l-2.4,3c-0.146,0.183 -0.146,0.442 0,0.625l2.4,3l0.781,-0.625l-2.15,-2.688l2.15,-2.688z"></path><path d="M35.99,27.313l2.4,-3c0.146,-0.183 0.146,-0.442 0,-0.625l-2.4,-3l-0.781,0.625l2.15,2.687l-2.15,2.688z"></path><rect x="-13.62833" y="38.12177" transform="rotate(-68.199)" width="6.462" height="0.999"></rect></g></g><g fill="#ffffff" fill-rule="nonzero" stroke="none" stroke-width="1" stroke-linecap="butt" stroke-linejoin="miter" stroke-miterlimit="10" stroke-dasharray="" stroke-dashoffset="0" font-family="none" font-weight="none" font-size="none" text-anchor="none" style="mix-blend-mode: normal"><g id="text"><path d="M36.65865,33.63149l-1.79,11.46c-1.04667,1.47333 -2.56667,2.60667 -4.56,3.4c-2,0.79333 -4.28333,1.17667 -6.85,1.15v0c-2.04667,-0.04 -3.83667,-0.52 -5.37,-1.44c-1.53333,-0.91333 -2.73667,-2.22667 -3.61,-3.94c-0.87333,-1.71333 -1.37333,-3.66 -1.5,-5.84v0c-0.1,-1.7 0.11,-4.00333 0.63,-6.91c0.52667,-2.90667 1.44,-5.42 2.74,-7.54c1.30667,-2.12 2.93667,-3.74 4.89,-4.86c1.95333,-1.12 4.19,-1.65667 6.71,-1.61v0c2.91333,0.06 5.23,0.92333 6.95,2.59c1.72667,1.66667 2.71333,4.01 2.96,7.03v0h-4c-0.15333,-1.97333 -0.74667,-3.49 -1.78,-4.55c-1.03333,-1.06 -2.46,-1.62 -4.28,-1.68v0c-2.68667,-0.1 -4.93667,0.86667 -6.75,2.9c-1.81333,2.03333 -3.00667,5.00667 -3.58,8.92v0l-0.41,3.01l-0.06,1.63c0,2.82 0.58,5 1.74,6.54c1.16,1.54 2.78333,2.32667 4.87,2.36v0c3.02667,0.06667 5.42667,-0.68 7.2,-2.24v0l1.29,-7.02h-7.05l0.61,-3.36zM58.99865,47.58149v0l4.66,4.49l-2.98,2.43l-5.46,-5.23c-1.06,0.23333 -2.12,0.35 -3.18,0.35v0c-1.96,-0.01333 -3.68667,-0.49 -5.18,-1.43c-1.48667,-0.94 -2.64333,-2.29333 -3.47,-4.06c-0.82,-1.76667 -1.27333,-3.77 -1.36,-6.01v0c-0.08667,-1.8 0.10333,-3.95 0.57,-6.45c0.46,-2.5 1.25667,-4.75667 2.39,-6.77c1.13333,-2.01333 2.50333,-3.63667 4.11,-4.87v0c2.28667,-1.74667 4.90667,-2.59 7.86,-2.53v0c2.02,0.04 3.77333,0.52667 5.26,1.46c1.49333,0.93333 2.64667,2.28333 3.46,4.05c0.82,1.76667 1.27,3.76667 1.35,6v0c0.04667,1.20667 -0.00333,2.40333 -0.15,3.59v0l-0.25,1.83c-0.89333,6.17333 -3.43667,10.55667 -7.63,13.15zM63.03865,30.00149v0c0.1,-2.86 -0.39333,-5.05667 -1.48,-6.59c-1.09333,-1.53333 -2.68333,-2.33 -4.77,-2.39v0c-1.92,-0.05333 -3.63667,0.46333 -5.15,1.55c-1.51333,1.08667 -2.75333,2.71667 -3.72,4.89c-0.96667,2.16667 -1.57667,4.91333 -1.83,8.24v0l-0.07,1.39c-0.05333,1.64667 0.14,3.18667 0.58,4.62c0.44667,1.43333 1.15333,2.52333 2.12,3.27c0.96667,0.74 2.15,1.13333 3.55,1.18v0c2.64,0.1 4.85667,-0.85333 6.65,-2.86c1.8,-2.00667 3,-4.83333 3.6,-8.48v0c0.3,-1.82 0.47333,-3.42667 0.52,-4.82z"></path></g></g></svg>