<svg xmlns="http://www.w3.org/2000/svg" xmlns:xlink="http://www.w3.org/1999/xlink" viewBox="0,0,256,256" width="100px" height="100px" fill-rule="nonzero"><defs><clipPath id="clip-1"><path d="M0,256v-256h256v256zM32.21333,70.56593c0,0 0,15.26519 0,22.89778c0,29.8816 24.57695,43.83398 34.34667,45.79556c9.76972,-1.96158 34.34667,-15.91396 34.34667,-45.79556c0,-7.63259 0,-22.89778 0,-22.89778l-34.34667,-15.26519z" id="overlayBgMask" fill="none" opacity="0.5"></path></clipPath></defs><g clip-path="url(#clip-1)" fill="none" fill-rule="nonzero" stroke="none" stroke-width="1" stroke-linecap="butt" stroke-linejoin="miter" stroke-miterlimit="10" stroke-dasharray="" stroke-dashoffset="0" font-family="none" font-weight="none" font-size="none" text-anchor="none" style="mix-blend-mode: normal"><g transform="scale(2.56,2.56)" fill="#ffffff"><path d="M58.95508,13c-2.17244,0 -3.95508,1.78264 -3.95508,3.95508v17.47852l-13,7.80078v-18.23437c0,-2.74952 -2.25048,-5 -5,-5h-22c-2.74952,0 -5,2.25048 -5,5v52c0,2.74952 2.25048,5 5,5h22c2.74952,0 5,-2.25048 5,-5v-18.23437l13,7.80078v11.48047c0,2.17177 1.78264,3.95313 3.95508,3.95313h9.04492v1c0,0.55747 -0.44253,1 -1,1c-0.13819,-0.00214 -0.2711,0.053 -0.36719,0.15234c-0.90087,0.19349 -1.63281,0.89188 -1.63281,1.84766c0,1.09853 0.90147,2 2,2h14c1.09853,0 2,-0.90147 2,-2c0,-1.09853 -0.90147,-2 -2,-2c-0.55747,0 -1,-0.44253 -1,-1v-1h9c2.19082,0 4,-1.80918 4,-4v-20c0,-2.19082 -1.80918,-4 -4,-4h-30.04492c-2.17244,0 -3.95508,1.78264 -3.95508,3.95508v6.2793l-13,-7.80078v-10.86719l13,-7.80078v0.28125c0,2.17177 1.78264,3.95313 3.95508,3.95313h9.04492v1c0,0.55747 -0.44253,1 -1,1c-0.13819,-0.00214 -0.2711,0.053 -0.36719,0.15234c-0.90087,0.19349 -1.63281,0.89188 -1.63281,1.84766c0,1.09853 0.90147,2 2,2h14c1.09853,0 2,-0.90147 2,-2c0,-1.09853 -0.90147,-2 -2,-2c-0.55747,0 -1,-0.44253 -1,-1v-1h9c2.19082,0 4,-1.80918 4,-4v-20c0,-2.19082 -1.80918,-4 -4,-4zM58.95508,15h30.04492c1.07318,0 2,0.92682 2,2v15h-34v-15.04492c0,-1.09156 0.86352,-1.95508 1.95508,-1.95508zM72.5,16c-0.18032,-0.00255 -0.34804,0.09219 -0.43894,0.24794c-0.0909,0.15575 -0.0909,0.34838 0,0.50413c0.0909,0.15575 0.25863,0.25049 0.43894,0.24794h3c0.18032,0.00255 0.34804,-0.09219 0.43894,-0.24794c0.0909,-0.15575 0.0909,-0.34838 0,-0.50413c-0.0909,-0.15575 -0.25863,-0.25049 -0.43894,-0.24794zM15,21h22c1.66848,0 3,1.33152 3,3v19.43359v13.13281v19.43359c0,1.66848 -1.33152,3 -3,3h-22c-1.66848,0 -3,-1.33152 -3,-3v-52c0,-1.66848 1.33152,-3 3,-3zM15.5,26c-0.27613,0.00003 -0.49997,0.22387 -0.5,0.5v5.91992c-0.00882,0.05368 -0.00882,0.10843 0,0.16211v5.83789c-0.00882,0.05368 -0.00882,0.10843 0,0.16211v5.91797c0.00003,0.27613 0.22387,0.49997 0.5,0.5h17c0.18032,0.00255 0.34804,-0.09219 0.43894,-0.24794c0.0909,-0.15575 0.0909,-0.34838 0,-0.50413c-0.0909,-0.15575 -0.25863,-0.25049 -0.43894,-0.24794h-16.5v-5h20v5h-1.5c-0.18032,-0.00255 -0.34804,0.09219 -0.43894,0.24794c-0.0909,0.15575 -0.0909,0.34838 0,0.50413c0.0909,0.15575 0.25863,0.25049 0.43894,0.24794h2c0.27613,-0.00003 0.49997,-0.22387 0.5,-0.5v-5.91992c0.00882,-0.05368 0.00882,-0.10843 0,-0.16211v-5.83789c0.00882,-0.05368 0.00882,-0.10843 0,-0.16211v-5.91797c-0.00003,-0.27613 -0.22387,-0.49997 -0.5,-0.5h-9c-0.18032,-0.00255 -0.34804,0.09219 -0.43894,0.24794c-0.0909,0.15575 -0.0909,0.34838 0,0.50413c0.0909,0.15575 0.25863,0.25049 0.43894,0.24794h8.5v5h-20v-5h1.5c0.18032,0.00255 0.34804,-0.09219 0.43894,-0.24794c0.0909,-0.15575 0.0909,-0.34838 0,-0.50413c-0.0909,-0.15575 -0.25863,-0.25049 -0.43894,-0.24794zM20.5,26c-0.18032,-0.00255 -0.34804,0.09219 -0.43894,0.24794c-0.0909,0.15575 -0.0909,0.34838 0,0.50413c0.0909,0.15575 0.25863,0.25049 0.43894,0.24794h1c0.18032,0.00255 0.34804,-0.09219 0.43894,-0.24794c0.0909,-0.15575 0.0909,-0.34838 0,-0.50413c-0.0909,-0.15575 -0.25863,-0.25049 -0.43894,-0.24794zM23.5,26c-0.18032,-0.00255 -0.34804,0.09219 -0.43894,0.24794c-0.0909,0.15575 -0.0909,0.34838 0,0.50413c0.0909,0.15575 0.25863,0.25049 0.43894,0.24794h2c0.18032,0.00255 0.34804,-0.09219 0.43894,-0.24794c0.0909,-0.15575 0.0909,-0.34838 0,-0.50413c-0.0909,-0.15575 -0.25863,-0.25049 -0.43894,-0.24794zM16,33h20v5h-20zM57,33h34v4c0,1.07318 -0.92682,2 -2,2h-30.04492c-1.09156,0 -1.95508,-0.8629 -1.95508,-1.95312zM74,34c-0.625,0 -1.15641,0.25238 -1.49805,0.63672c-0.34164,0.38434 -0.50195,0.87717 -0.50195,1.36328c0,0.48611 0.16032,0.97894 0.50195,1.36328c0.34164,0.38434 0.87305,0.63672 1.49805,0.63672c0.625,0 1.15641,-0.25238 1.49805,-0.63672c0.34164,-0.38434 0.50195,-0.87717 0.50195,-1.36328c0,-0.48611 -0.16032,-0.97894 -0.50195,-1.36328c-0.34164,-0.38434 -0.87305,-0.63672 -1.49805,-0.63672zM74,35c0.375,0 0.59359,0.12262 0.75195,0.30078c0.15836,0.17816 0.24805,0.43533 0.24805,0.69922c0,0.26389 -0.08968,0.52106 -0.24805,0.69922c-0.15836,0.17816 -0.37695,0.30078 -0.75195,0.30078c-0.375,0 -0.59359,-0.12262 -0.75195,-0.30078c-0.15836,-0.17816 -0.24805,-0.43533 -0.24805,-0.69922c0,-0.26389 0.08968,-0.52106 0.24805,-0.69922c0.15836,-0.17816 0.37695,-0.30078 0.75195,-0.30078zM69,41h10v1c0,1.09853 0.90147,2 2,2c0.55747,0 1,0.44253 1,1c0,0.55747 -0.44253,1 -1,1h-14c-0.55747,0 -1,-0.44253 -1,-1c0,-0.55747 0.44253,-1 1,-1h7.5c0.18032,0.00255 0.34804,-0.09219 0.43894,-0.24794c0.0909,-0.15575 0.0909,-0.34838 0,-0.50413c-0.0909,-0.15575 -0.25863,-0.25049 -0.43894,-0.24794h-5.91602c0.19473,-0.30826 0.41602,-0.61107 0.41602,-1zM76.5,43c-0.18032,-0.00255 -0.34804,0.09219 -0.43894,0.24794c-0.0909,0.15575 -0.0909,0.34838 0,0.50413c0.0909,0.15575 0.25863,0.25049 0.43894,0.24794h1c0.18032,0.00255 0.34804,-0.09219 0.43894,-0.24794c0.0909,-0.15575 0.0909,-0.34838 0,-0.50413c-0.0909,-0.15575 -0.25863,-0.25049 -0.43894,-0.24794zM58.95508,55h30.04492c1.07318,0 2,0.92682 2,2v15h-34v-15.04492c0,-1.09156 0.86352,-1.95508 1.95508,-1.95508zM72.5,56c-0.18032,-0.00255 -0.34804,0.09219 -0.43894,0.24794c-0.0909,0.15575 -0.0909,0.34838 0,0.50413c0.0909,0.15575 0.25863,0.25049 0.43894,0.24794h3c0.18032,0.00255 0.34804,-0.09219 0.43894,-0.24794c0.0909,-0.15575 0.0909,-0.34838 0,-0.50413c-0.0909,-0.15575 -0.25863,-0.25049 -0.43894,-0.24794zM26,62c-1.29167,0 -2.32308,0.50238 -2.99805,1.26172c-0.67497,0.75934 -1.00195,1.75217 -1.00195,2.73828c0,0.98611 0.32698,1.97894 1.00195,2.73828c0.67497,0.75934 1.70638,1.26172 2.99805,1.26172c1.29167,0 2.32308,-0.50238 2.99805,-1.26172c0.67497,-0.75934 1.00195,-1.75217 1.00195,-2.73828c0,-0.98611 -0.32698,-1.97894 -1.00195,-2.73828c-0.67497,-0.75934 -1.70638,-1.26172 -2.99805,-1.26172zM26,63c1.04167,0 1.76026,0.37262 2.25195,0.92578c0.4917,0.55316 0.74805,1.31033 0.74805,2.07422c0,0.76389 -0.25635,1.52106 -0.74805,2.07422c-0.4917,0.55316 -1.21029,0.92578 -2.25195,0.92578c-1.04167,0 -1.76026,-0.37262 -2.25195,-0.92578c-0.4917,-0.55316 -0.74805,-1.31033 -0.74805,-2.07422c0,-0.76389 0.25635,-1.52106 0.74805,-2.07422c0.4917,-0.55316 1.21029,-0.92578 2.25195,-0.92578zM26,73c-0.625,0 -1.15641,0.25238 -1.49805,0.63672c-0.34164,0.38434 -0.50195,0.87717 -0.50195,1.36328c0,0.48611 0.16032,0.97894 0.50195,1.36328c0.34164,0.38434 0.87305,0.63672 1.49805,0.63672c0.625,0 1.15641,-0.25238 1.49805,-0.63672c0.34164,-0.38434 0.50195,-0.87717 0.50195,-1.36328c0,-0.48611 -0.16032,-0.97894 -0.50195,-1.36328c-0.34164,-0.38434 -0.87305,-0.63672 -1.49805,-0.63672zM57,73h34v4c0,1.07318 -0.92682,2 -2,2h-30.04492c-1.09156,0 -1.95508,-0.8629 -1.95508,-1.95312zM26,74c0.375,0 0.59359,0.12262 0.75195,0.30078c0.15836,0.17816 0.24805,0.43533 0.24805,0.69922c0,0.26389 -0.08968,0.52106 -0.24805,0.69922c-0.15836,0.17816 -0.37695,0.30078 -0.75195,0.30078c-0.375,0 -0.59359,-0.12262 -0.75195,-0.30078c-0.15836,-0.17816 -0.24805,-0.43533 -0.24805,-0.69922c0,-0.26389 0.08968,-0.52106 0.24805,-0.69922c0.15836,-0.17816 0.37695,-0.30078 0.75195,-0.30078zM74,74c-0.625,0 -1.15641,0.25238 -1.49805,0.63672c-0.34164,0.38434 -0.50195,0.87717 -0.50195,1.36328c0,0.48611 0.16032,0.97894 0.50195,1.36328c0.34164,0.38434 0.87305,0.63672 1.49805,0.63672c0.625,0 1.15641,-0.25238 1.49805,-0.63672c0.34164,-0.38434 0.50195,-0.87717 0.50195,-1.36328c0,-0.48611 -0.16032,-0.97894 -0.50195,-1.36328c-0.34164,-0.38434 -0.87305,-0.63672 -1.49805,-0.63672zM74,75c0.375,0 0.59359,0.12262 0.75195,0.30078c0.15836,0.17816 0.24805,0.43533 0.24805,0.69922c0,0.26389 -0.08968,0.52106 -0.24805,0.69922c-0.15836,0.17816 -0.37695,0.30078 -0.75195,0.30078c-0.375,0 -0.59359,-0.12262 -0.75195,-0.30078c-0.15836,-0.17816 -0.24805,-0.43533 -0.24805,-0.69922c0,-0.26389 0.08968,-0.52106 0.24805,-0.69922c0.15836,-0.17816 0.37695,-0.30078 0.75195,-0.30078zM69,81h10v1c0,1.09853 0.90147,2 2,2c0.55747,0 1,0.44253 1,1c0,0.55747 -0.44253,1 -1,1h-14c-0.55747,0 -1,-0.44253 -1,-1c0,-0.55747 0.44253,-1 1,-1h7.5c0.18032,0.00255 0.34804,-0.09219 0.43894,-0.24794c0.0909,-0.15575 0.0909,-0.34838 0,-0.50413c-0.0909,-0.15575 -0.25863,-0.25049 -0.43894,-0.24794h-5.91602c0.19473,-0.30826 0.41602,-0.61107 0.41602,-1zM76.5,83c-0.18032,-0.00255 -0.34804,0.09219 -0.43894,0.24794c-0.0909,0.15575 -0.0909,0.34838 0,0.50413c0.0909,0.15575 0.25863,0.25049 0.43894,0.24794h1c0.18032,0.00255 0.34804,-0.09219 0.43894,-0.24794c0.0909,-0.15575 0.0909,-0.34838 0,-0.50413c-0.0909,-0.15575 -0.25863,-0.25049 -0.43894,-0.24794z"></path></g></g><g fill="#ffffff" fill-rule="nonzero" stroke="none" stroke-width="1" stroke-linecap="butt" stroke-linejoin="miter" stroke-miterlimit="10" stroke-dasharray="" stroke-dashoffset="0" font-family="none" font-weight="none" font-size="none" text-anchor="none" style="mix-blend-mode: normal"><g transform="translate(37.12,61.29778) scale(6.54222,6.54222)" id="overlay"><path d="M4.5,0l-4.5,2c0,0 0,2 0,3c0,3.915 3.22,5.743 4.5,6c1.28,-0.257 4.5,-2.085 4.5,-6c0,-1 0,-3 0,-3l-4.5,-2z"></path></g></g></svg>