<svg xmlns="http://www.w3.org/2000/svg" xmlns:xlink="http://www.w3.org/1999/xlink" viewBox="0,0,256,256" width="128px" height="128px" fill-rule="nonzero"><defs><clipPath id="clip-1"><path d="M0,256v-256h256v256zM206.9427,43.66976c0.23177,-1.19267 0.3718,-2.41431 0.3718,-3.66976c0,-1.25544 -0.14003,-2.47708 -0.3718,-3.66976l3.8967,-2.89235c0.49735,-0.3718 0.64221,-1.05747 0.32835,-1.59345l-4.51959,-7.83203c-0.30903,-0.53598 -0.97538,-0.75809 -1.54516,-0.51183l-4.51959,1.95559c-1.83005,-1.58379 -3.94499,-2.81992 -6.28204,-3.63113l-0.56495,-4.88657c-0.07243,-0.61806 -0.59392,-1.08161 -1.21681,-1.08161h-9.03919c-0.62289,0 -1.14438,0.46355 -1.21681,1.08161l-0.56495,4.88657c-2.33705,0.81121 -4.45199,2.04734 -6.28204,3.63113l-4.51959,-1.95559c-0.56978,-0.24626 -1.23613,-0.02414 -1.54516,0.51183l-4.51959,7.83203c-0.30903,0.53598 -0.169,1.22164 0.32835,1.59345l3.8967,2.89235c-0.23177,1.19267 -0.3718,2.41431 -0.3718,3.66976c0,1.25544 0.14003,2.47708 0.3718,3.66976l-3.8967,2.89235c-0.49735,0.3718 -0.64221,1.05747 -0.32835,1.59345l4.51959,7.8272c0.30903,0.54081 0.97538,0.75809 1.54516,0.51183l4.51959,-1.95559c1.83005,1.58862 3.94499,2.82475 6.28204,3.63596l0.56495,4.88657c0.07243,0.61806 0.59392,1.08161 1.21681,1.08161h9.03919c0.62289,0 1.14438,-0.46355 1.21681,-1.08161l0.56495,-4.88657c2.33705,-0.81121 4.45199,-2.04734 6.28204,-3.63113l4.51959,1.95559c0.56978,0.24626 1.23613,0.02414 1.54516,-0.51183l4.51959,-7.8272c0.30903,-0.54081 0.169,-1.22647 -0.32835,-1.59345z" id="overlayBgMask" fill="none" opacity="0.5"></path></clipPath></defs><g transform=""><g clip-path="url(#clip-1)" fill="none" fill-rule="nonzero" stroke="none" stroke-width="1" stroke-linecap="butt" stroke-linejoin="miter" stroke-miterlimit="10" stroke-dasharray="" stroke-dashoffset="0" font-family="none" font-weight="none" font-size="none" text-anchor="none" style="mix-blend-mode: normal"><g transform="scale(4,4)" fill="#ffffff"><path d="M6,2c-0.552,0 -1,0.448 -1,1v14c0,0.552 0.448,1 1,1h1v2h-1c-0.552,0 -1,0.448 -1,1v14c0,0.552 0.448,1 1,1h1v2h-1c-0.552,0 -1,0.448 -1,1v14c0,0.552 0.448,1 1,1h25v5.9375h-29v2h60v-2h-29v-5.9375h25c0.552,0 1,-0.448 1,-1v-14c0,-0.552 -0.448,-1 -1,-1h-1v-2h1c0.552,0 1,-0.448 1,-1v-14c0,-0.552 -0.448,-1 -1,-1h-1v-2h1c0.552,0 1,-0.448 1,-1v-14c0,-0.552 -0.448,-1 -1,-1zM7,4h50v12h-50zM9,6v2h4v-2zM15,6v2h4v-2zM21,6v2h4v-2zM27,6v2h4v-2zM33,6v2h4v-2zM40,6c-0.552,0 -1,0.448 -1,1v6c0,0.552 0.448,1 1,1h14c0.552,0 1,-0.448 1,-1v-6c0,-0.552 -0.448,-1 -1,-1zM41,8h12v4h-12zM9,10v2h4v-2zM15,10v2h4v-2zM21,10v2h4v-2zM27,10v2h4v-2zM33,10v2h4v-2zM9,18h46v2h-46zM7,22h50v12h-50zM9,24v2h4v-2zM15,24v2h4v-2zM21,24v2h4v-2zM27,24v2h4v-2zM33,24v2h4v-2zM40,24c-0.552,0 -1,0.448 -1,1v6c0,0.552 0.448,1 1,1h14c0.552,0 1,-0.448 1,-1v-6c0,-0.552 -0.448,-1 -1,-1zM41,26h12v4h-12zM9,28v2h4v-2zM15,28v2h4v-2zM21,28v2h4v-2zM27,28v2h4v-2zM33,28v2h4v-2zM9,36h46v2h-46zM7,40h50v12h-50zM9,42v2h4v-2zM15,42v2h4v-2zM21,42v2h4v-2zM27,42v2h4v-2zM33,42v2h4v-2zM40,42c-0.552,0 -1,0.448 -1,1v6c0,0.552 0.448,1 1,1h14c0.552,0 1,-0.448 1,-1v-6c0,-0.552 -0.448,-1 -1,-1zM41,44h12v4h-12zM9,46v2h4v-2zM15,46v2h4v-2zM21,46v2h4v-2zM27,46v2h4v-2zM33,46v2h4v-2z"></path></g></g><g fill="#ffffff" fill-rule="nonzero" stroke="none" stroke-width="1" stroke-linecap="butt" stroke-linejoin="miter" stroke-miterlimit="10" stroke-dasharray="" stroke-dashoffset="0" font-family="none" font-weight="none" font-size="none" text-anchor="none" style="mix-blend-mode: normal"><g transform="translate(167.30589,19.30589) scale(4.13882,4.13882)" id="overlay"><path d="M8.923,5.76c0.048,-0.247 0.077,-0.5 0.077,-0.76c0,-0.26 -0.029,-0.513 -0.077,-0.76l0.807,-0.599c0.103,-0.077 0.133,-0.219 0.068,-0.33l-0.936,-1.622c-0.064,-0.111 -0.202,-0.157 -0.32,-0.106l-0.936,0.405c-0.379,-0.328 -0.817,-0.584 -1.301,-0.752l-0.117,-1.012c-0.015,-0.128 -0.123,-0.224 -0.252,-0.224h-1.872c-0.129,0 -0.237,0.096 -0.252,0.224l-0.117,1.012c-0.484,0.168 -0.922,0.424 -1.301,0.752l-0.936,-0.405c-0.118,-0.051 -0.256,-0.005 -0.32,0.106l-0.936,1.622c-0.064,0.111 -0.035,0.253 0.068,0.33l0.807,0.599c-0.048,0.247 -0.077,0.5 -0.077,0.76c0,0.26 0.029,0.513 0.077,0.76l-0.807,0.599c-0.103,0.077 -0.133,0.219 -0.068,0.33l0.936,1.621c0.064,0.112 0.202,0.157 0.32,0.106l0.936,-0.405c0.379,0.329 0.817,0.585 1.301,0.753l0.117,1.012c0.015,0.128 0.123,0.224 0.252,0.224h1.872c0.129,0 0.237,-0.096 0.252,-0.224l0.117,-1.012c0.484,-0.168 0.922,-0.424 1.301,-0.752l0.936,0.405c0.118,0.051 0.256,0.005 0.32,-0.106l0.936,-1.621c0.064,-0.112 0.035,-0.254 -0.068,-0.33zM5,7c-1.104,0 -2,-0.896 -2,-2c0,-1.105 0.896,-2 2,-2c1.104,0 2,0.895 2,2c0,1.104 -0.896,2 -2,2z"></path></g></g></g></svg>